<?xml version="1.0" encoding="UTF-8"?>
<svg id="Layer_1" xmlns="http://www.w3.org/2000/svg" version="1.1" viewBox="0 0 140 34.85">
  <defs>
    <style>.st0 { fill: #891c1d; }</style>
  </defs>
  <g>
    <polygon class="st0" points="38.56 3.71 36.75 6.84 4.4 6.84 2.59 3.71 38.56 3.71"/>
    <polygon class="st0" points="18.48 7.36 18.48 10.49 6.51 10.49 4.7 7.36 18.48 7.36"/>
    <polygon class="st0" points="36.45 7.36 34.64 10.49 22.66 10.49 22.66 7.36 36.45 7.36"/>
    <polygon class="st0" points="40.67 .05 38.86 3.19 2.29 3.19 .48 .05 40.67 .05"/>
    <polygon class="st0" points="18.49 11.01 18.49 31.24 15.36 25.81 15.36 11.01 18.49 11.01"/>
    <polygon class="st0" points="22.14 7.36 22.14 32.14 20.58 34.85 19.01 32.14 19.01 7.36 22.14 7.36"/>
    <polygon class="st0" points="25.8 11.01 25.8 25.81 22.66 31.24 22.66 11.01 25.8 11.01"/>
  </g>
  <g>
    <path class="st0" d="M57.88,25.86h-4.22v-13.36h-4.17v-1.96h12.57v1.96h-4.17v13.36Z"/>
    <polygon class="st0" points="72.26 12.49 72.26 17.22 77.1 17.22 77.1 19.17 72.26 19.17 72.26 23.89 79.04 23.89 79.04 25.85 68.04 25.85 68.04 10.52 79.04 10.52 79.04 12.49 72.26 12.49"/>
    <path class="st0" d="M87.04,25.85h-1.96v-15.32h2.75l9.31,10.52v-10.52h1.95v15.32h-2.75l-9.3-10.51v10.51Z"/>
    <path class="st0" d="M120.94,18.16c0,1.23-.21,2.35-.64,3.34-.43.99-1.01,1.83-1.77,2.52-.75.69-1.64,1.22-2.67,1.59-1.03.37-2.14.55-3.34.55s-2.31-.18-3.34-.55c-1.03-.37-1.92-.9-2.67-1.59-.75-.69-1.34-1.53-1.77-2.52-.43-.99-.64-2.1-.64-3.34s.21-2.38.63-3.37c.42-.99,1.01-1.83,1.76-2.51.75-.68,1.64-1.21,2.66-1.57,1.03-.37,2.15-.55,3.36-.55s2.33.18,3.36.55c1.03.37,1.92.89,2.67,1.57s1.33,1.52,1.76,2.51c.42.99.63,2.11.63,3.37ZM116.65,18.16c0-.47-.02-.95-.06-1.44-.04-.49-.12-.96-.23-1.43-.11-.46-.27-.89-.46-1.3-.2-.4-.45-.76-.75-1.06-.31-.3-.67-.54-1.1-.71-.43-.17-.93-.26-1.51-.26s-1.09.09-1.52.26c-.43.17-.8.41-1.11.71s-.55.65-.75,1.05c-.19.4-.34.83-.45,1.29-.11.46-.19.93-.23,1.43-.04.49-.06.98-.06,1.45s.02.95.06,1.44c.04.49.12.96.23,1.42.11.46.27.89.46,1.29.19.4.44.76.75,1.06.31.3.67.54,1.1.72.43.18.93.27,1.51.27s1.05-.09,1.47-.27c.42-.18.78-.43,1.08-.73s.56-.67.76-1.07c.2-.41.36-.84.48-1.3.12-.46.2-.93.25-1.41.05-.48.07-.95.07-1.41Z"/>
    <path class="st0" d="M127.96,25.85h-1.96v-15.32h2.74l9.31,10.52v-10.52h1.95v15.32h-2.74l-9.3-10.51v10.51Z"/>
  </g>
</svg>
