<?xml version="1.0" encoding="UTF-8"?>
<svg xmlns="http://www.w3.org/2000/svg" viewBox="103.53 420.67 294.74 73.5">
  <defs><style>.st0 { fill: #8a1d1d; }</style></defs>
  <polygon points="336.21 463.49 330.28 480.15 328.32 485.82 323.75 485.83 318.85 470.52 313.95 485.84 309.4 485.83 308.74 483.76 301.69 463.5 307.51 463.45 312.61 479.55 317.63 463.5 322.25 463.52 324.57 471.34 327.11 479.59 332.7 463.51 336.21 463.49"/>
  <path d="M293.19,485.3c-1.2.41-2.48.72-3.72.73l-9.29.06v-2.99s0-14.36,0-14.36v-5.28s9.34.03,9.34.03l1.92.31c5.29.84,8.77,5.29,8.89,10.54.12,4.9-2.29,9.31-7.14,10.98ZM293.25,468.82c-.98-1.44-2.79-2.35-4.57-2.36l-3.17-.02v16.7s3.83-.09,3.83-.09c1.92-.04,3.42-1.39,4.35-3.01,1.78-3.08,1.69-8.08-.43-11.23Z"/>
  <polygon points="228.02 486.01 222.74 486.07 222.74 476.1 213.4 476.07 213.4 486.07 208.12 486.08 208.12 463.45 213.4 463.46 213.4 473.27 222.74 473.25 222.75 463.45 228 463.46 228.02 486.01"/>
  <path d="M377.85,485.84l-5.62.08-4.24-8.58-2.75-.03-.03,8.58-5.26.04v-22.48s9.97.05,9.97.05c1.44,0,2.8.47,4.05,1.02,2.09,1.13,3.28,3.06,3.37,5.42.11,2.94-1.46,5.46-4.32,6.47l.92,1.85,3.89,7.59ZM368.8,474.27c2.17-.04,3.24-2.04,3.15-3.97-.05-1.1-.12-2.08-.9-2.9-.58-.61-1.64-1.1-2.68-1.08l-3.14.08v7.94s3.57-.07,3.57-.07Z"/>
  <path d="M275.68,485.84l-5.62.08-4.24-8.58-2.75-.03-.03,8.58-5.26.04v-22.48s9.97.05,9.97.05c1.44,0,2.8.47,4.05,1.02,2.09,1.13,3.28,3.06,3.37,5.42.11,2.94-1.46,5.46-4.32,6.47l.92,1.85,3.89,7.59ZM266.63,474.27c2.17-.04,3.24-2.04,3.15-3.97-.05-1.1-.12-2.08-.9-2.9-.58-.61-1.64-1.1-2.68-1.08l-3.14.08v7.94s3.57-.07,3.57-.07Z"/>
  <path d="M348.86,480.25c-1.38-.17-2.79-.1-4.21-.11-1.62,0-3.15,0-4.78.08l-2.28,5.85-3.73-.02,4-9.91,5.21-12.69h4.57s2.2,5.38,2.2,5.38l7.09,17.19-5.75.06-2.31-5.83ZM347.67,477.26l-3.25-7.94-3.38,7.99,6.63-.05Z"/>
  <path d="M246.36,480.25c-1.38-.17-2.79-.1-4.21-.11-1.62,0-3.15,0-4.78.08l-2.28,5.85-3.73-.02,4-9.91,5.21-12.69h4.57s2.2,5.38,2.2,5.38l7.09,17.19-5.75.06-2.31-5.83ZM245.18,477.26l-3.25-7.94-3.38,7.99,6.63-.05Z"/>
  <polygon points="388.27 466.37 388.27 473.35 395.4 473.35 395.4 476.22 388.27 476.22 388.27 483.18 398.27 483.18 398.27 486.08 382.06 486.08 382.06 463.45 398.27 463.45 398.27 466.37 388.27 466.37"/>
  <g>
    <polygon class="st0" points="183.98 428.37 180.15 435 111.83 435 108 428.37 183.98 428.37"/>
    <polygon class="st0" points="141.57 436.1 141.57 442.73 116.26 442.73 112.46 436.1 141.57 436.1"/>
    <polygon class="st0" points="179.51 436.1 175.68 442.73 150.4 442.73 150.4 436.1 179.51 436.1"/>
    <polygon class="st0" points="188.45 420.67 184.62 427.27 107.36 427.27 103.53 420.67 188.45 420.67"/>
    <polygon class="st0" points="141.57 443.83 141.57 486.55 134.94 475.1 134.94 443.83 141.57 443.83"/>
    <polygon class="st0" points="149.3 436.1 149.3 488.47 145.97 494.17 142.67 488.43 142.67 436.1 149.3 436.1"/>
    <polygon class="st0" points="157 443.83 157 475.1 150.4 486.55 150.4 443.83 157 443.83"/>
  </g>
  <g>
    <path class="st0" d="M224.79,453.12h-8.93v-28.22h-8.79v-4.15h26.56v4.15h-8.79v28.22h-.04Z"/>
    <polygon class="st0" points="255.17 424.86 255.17 434.86 265.38 434.86 265.38 438.97 255.17 438.97 255.17 448.93 269.5 448.93 269.5 453.08 246.27 453.08 246.27 420.67 269.5 420.67 269.5 424.86 255.17 424.86"/>
    <path class="st0" d="M286.41,453.08h-4.15v-32.37h5.78l19.68,22.23v-22.23h4.11v32.37h-5.78l-19.64-22.2v22.2Z"/>
    <path class="st0" d="M358.03,436.84c0,2.62-.46,4.96-1.35,7.06s-2.13,3.86-3.72,5.32c-1.6,1.45-3.47,2.59-5.64,3.33-2.16.78-4.54,1.17-7.06,1.17s-4.89-.39-7.06-1.17c-2.16-.78-4.04-1.91-5.64-3.33-1.6-1.45-2.84-3.23-3.72-5.32s-1.35-4.43-1.35-7.06.46-5.03,1.35-7.13,2.13-3.86,3.69-5.32c1.56-1.45,3.47-2.55,5.64-3.33s4.54-1.17,7.09-1.17,4.93.39,7.09,1.17,4.04,1.88,5.64,3.33,2.8,3.23,3.69,5.32c.92,2.09,1.38,4.47,1.38,7.13h-.04ZM348.95,436.84c0-.99-.04-1.99-.14-3.05-.11-1.03-.25-2.02-.5-3.01-.25-.96-.57-1.88-.99-2.73-.43-.85-.96-1.6-1.56-2.23-.64-.64-1.42-1.13-2.34-1.52-.89-.35-1.95-.53-3.19-.53s-2.3.18-3.23.53-1.7.89-2.34,1.49c-.64.64-1.17,1.38-1.56,2.23s-.71,1.77-.96,2.73-.39,1.95-.5,3.01c-.07,1.06-.14,2.06-.14,3.08s.04,1.99.14,3.05c.11,1.03.25,2.02.5,3.01.25.96.57,1.88.99,2.73.43.85.92,1.6,1.56,2.23s1.42,1.13,2.34,1.52c.89.35,1.95.57,3.19.57s2.23-.18,3.12-.57,1.63-.89,2.27-1.56c.64-.64,1.17-1.38,1.6-2.27s.78-1.77,1.03-2.73c.25-.96.43-1.95.53-2.98.11-1.06.14-2.02.14-2.98l.04-.04Z"/>
    <path class="st0" d="M372.85,453.08h-4.15v-32.37h5.78l19.68,22.23v-22.23h4.11v32.37h-5.78l-19.64-22.2s0,22.2,0,22.2Z"/>
  </g>
</svg>
