<?xml version="1.0" encoding="UTF-8"?>
<svg id="Layer_1" xmlns="http://www.w3.org/2000/svg" version="1.1" viewBox="0 0 40.18 34.85">
  <!-- Generator: Adobe Illustrator 30.0.0, SVG Export Plug-In . SVG Version: 2.1.1 Build 123)  -->
  <defs>
    <style>
      .st0 {
        fill: #891c1d;
      }
    </style>
  </defs>
  <polygon class="st0" points="38.08 3.71 36.27 6.84 3.92 6.84 2.11 3.71 38.08 3.71"/>
  <polygon class="st0" points="18 7.36 18 10.49 6.03 10.49 4.22 7.36 18 7.36"/>
  <polygon class="st0" points="35.96 7.36 34.15 10.49 22.18 10.49 22.18 7.36 35.96 7.36"/>
  <polygon class="st0" points="40.18 .05 38.37 3.19 1.81 3.19 0 .05 40.18 .05"/>
  <polygon class="st0" points="18 11.01 18 31.24 14.87 25.81 14.87 11.01 18 11.01"/>
  <polygon class="st0" points="21.66 7.36 21.66 32.14 20.09 34.85 18.52 32.14 18.52 7.36 21.66 7.36"/>
  <polygon class="st0" points="25.31 11.01 25.31 25.81 22.18 31.24 22.18 11.01 25.31 11.01"/>
</svg>
