<?xml version="1.0" encoding="UTF-8"?>
<svg id="Layer_1" xmlns="http://www.w3.org/2000/svg" version="1.1" viewBox="0 0 582.76 146.58">
  <!-- Generator: Adobe Illustrator 30.5.1, SVG Export Plug-In . SVG Version: 2.1.4 Build 3)  -->
  <defs>
    <style>
      .st0 {
        fill: #8a1d1d;
      }
    </style>
  </defs>
  <g>
    <polygon points="451.94 95.13 440.55 127.86 436.79 139 428.01 139.02 418.61 108.94 409.2 139.04 400.46 139.02 399.2 134.95 385.66 95.15 396.83 95.06 406.63 126.68 416.26 95.15 425.13 95.19 429.59 110.55 434.47 126.76 445.2 95.17 451.94 95.13"/>
    <path d="M369.34,137.97c-2.3.81-4.76,1.41-7.14,1.43l-17.84.12v-44.45l17.93.06,3.69.61c10.16,1.65,16.84,10.39,17.07,20.7.23,9.62-4.4,18.29-13.71,21.57v-.04ZM369.46,105.6c-1.88-2.83-5.36-4.62-8.77-4.64l-6.09-.04v32.8l7.35-.18c3.69-.08,6.57-2.73,8.35-5.91,3.42-6.05,3.24-15.87-.83-22.06l-.02.02Z"/>
    <polygon points="244.22 139.37 234.08 139.49 234.08 119.9 216.15 119.84 216.15 139.49 206.01 139.51 206.01 95.06 216.15 95.08 216.15 114.34 234.08 114.31 234.1 95.06 244.18 95.08 244.22 139.37"/>
    <path d="M531.88,139.04l-10.79.16-8.14-16.85-5.28-.06-.06,16.85-10.1.08v-44.16l19.14.1c2.76,0,5.38.92,7.78,2,4.01,2.22,6.3,6.01,6.47,10.65.21,5.77-2.8,10.72-8.29,12.71l1.77,3.63,7.47,14.91.04-.02ZM514.51,116.31c4.17-.08,6.22-4.01,6.05-7.8-.1-2.16-.23-4.09-1.73-5.7-1.11-1.2-3.15-2.16-5.15-2.12l-6.03.16v15.6l6.85-.14Z"/>
    <path d="M335.72,139.04l-10.79.16-8.14-16.85-5.28-.06-.06,16.85-10.1.08v-44.16l19.14.1c2.76,0,5.38.92,7.78,2,4.01,2.22,6.3,6.01,6.47,10.65.21,5.77-2.8,10.72-8.29,12.71l1.77,3.63,7.47,14.91.04-.02ZM318.35,116.31c4.17-.08,6.22-4.01,6.05-7.8-.1-2.16-.23-4.09-1.73-5.7-1.11-1.2-3.15-2.16-5.15-2.12l-6.03.16v15.6l6.85-.14Z"/>
    <path d="M476.22,128.05c-2.65-.33-5.36-.2-8.08-.22-3.11,0-6.05,0-9.18.16l-4.38,11.49-7.16-.04,7.68-19.47,10-24.93h8.77l4.22,10.57,13.61,33.77-11.04.12-4.44-11.45h-.02ZM473.94,122.18l-6.24-15.6-6.49,15.69,12.73-.1Z"/>
    <path d="M279.43,128.05c-2.65-.33-5.36-.2-8.08-.22-3.11,0-6.05,0-9.18.16l-4.38,11.49-7.16-.04,7.68-19.47,10-24.93h8.77l4.22,10.57,13.61,33.77-11.04.12-4.44-11.45h-.02ZM277.16,122.18l-6.24-15.6-6.49,15.69,12.73-.1Z"/>
    <polygon points="551.89 100.79 551.89 114.5 565.58 114.5 565.58 120.14 551.89 120.14 551.89 133.81 571.09 133.81 571.09 139.51 539.97 139.51 539.97 95.06 571.09 95.06 571.09 100.79 551.89 100.79"/>
  </g>
  <g>
    <polygon class="st0" points="158.33 19.83 150.95 32.6 19.36 32.6 11.98 19.83 158.33 19.83"/>
    <polygon class="st0" points="76.64 34.72 76.64 47.49 27.89 47.49 20.57 34.72 76.64 34.72"/>
    <polygon class="st0" points="149.72 34.72 142.34 47.49 93.65 47.49 93.65 34.72 149.72 34.72"/>
    <polygon class="st0" points="166.94 5 159.56 17.71 10.75 17.71 3.37 5 166.94 5"/>
    <polygon class="st0" points="76.64 49.61 76.64 131.9 63.87 109.84 63.87 49.61 76.64 49.61"/>
    <polygon class="st0" points="91.53 34.72 91.53 135.6 85.12 146.58 78.76 135.52 78.76 34.72 91.53 34.72"/>
    <polygon class="st0" points="106.36 49.61 106.36 109.84 93.65 131.9 93.65 49.61 106.36 49.61"/>
  </g>
  <g>
    <path class="st0" d="M226.04,80.15h-19.24V19.36h-18.94v-8.94h57.22v8.94h-18.94v60.79h-.11Z"/>
    <polygon class="st0" points="284.32 19.27 284.32 40.82 306.31 40.82 306.31 49.67 284.32 49.67 284.32 71.13 315.19 71.13 315.19 80.07 265.14 80.07 265.14 10.25 315.19 10.25 315.19 19.27 284.32 19.27"/>
    <path class="st0" d="M344.45,80.07h-8.94V10.33h12.45l42.4,47.89V10.33h8.85v69.73h-12.45l-42.31-47.82v47.82h0Z"/>
    <path class="st0" d="M491.57,45.08c0,5.64-.99,10.69-2.91,15.21-1.92,4.52-4.59,8.32-8.01,11.46-3.45,3.12-7.48,5.58-12.15,7.17-4.65,1.68-9.78,2.52-15.21,2.52s-10.53-.84-15.21-2.52c-4.65-1.68-8.7-4.11-12.15-7.17-3.45-3.12-6.12-6.96-8.01-11.46-1.9-4.5-2.91-9.54-2.91-15.21s.99-10.84,2.91-15.36c1.92-4.52,4.59-8.32,7.95-11.46,3.36-3.12,7.48-5.49,12.15-7.17s9.78-2.52,15.27-2.52,10.62.84,15.27,2.52,8.7,4.05,12.15,7.17c3.45,3.12,6.03,6.96,7.95,11.46,1.98,4.5,2.97,9.63,2.97,15.36h-.09.02ZM472.01,45.08c0-2.13-.09-4.29-.3-6.57-.24-2.22-.54-4.35-1.08-6.48-.54-2.07-1.23-4.05-2.13-5.88-.93-1.83-2.07-3.45-3.36-4.8-1.38-1.38-3.06-2.43-5.04-3.27-1.92-.75-4.2-1.14-6.87-1.14s-4.95.39-6.96,1.14-3.66,1.92-5.04,3.21c-1.38,1.38-2.52,2.97-3.36,4.8s-1.53,3.81-2.07,5.88-.84,4.2-1.08,6.48c-.15,2.28-.3,4.44-.3,6.64s.09,4.29.3,6.57c.24,2.22.54,4.35,1.08,6.48.54,2.07,1.23,4.05,2.13,5.88.93,1.83,1.98,3.45,3.36,4.8s3.06,2.43,5.04,3.27c1.92.75,4.2,1.23,6.87,1.23s4.8-.39,6.72-1.23,3.51-1.92,4.89-3.36c1.38-1.38,2.52-2.97,3.45-4.89s1.68-3.81,2.22-5.88c.54-2.07.93-4.2,1.14-6.42.24-2.28.3-4.35.3-6.42l.09-.09v.04Z"/>
    <path class="st0" d="M516.33,80.07h-8.94V10.33h12.45l42.4,47.89V10.33h8.85v69.73h-12.45l-42.31-47.82v47.82h0Z"/>
  </g>
</svg>
