<?xml version="1.0" encoding="UTF-8"?>
<svg id="Layer_1" xmlns="http://www.w3.org/2000/svg" version="1.1" viewBox="0 0 582.76 146.58">
  <!-- Generator: Adobe Illustrator 30.5.1, SVG Export Plug-In . SVG Version: 2.1.4 Build 3)  -->
  <defs>
    <style>
      .st0 {
        fill: #8a1d1d;
      }
    </style>
  </defs>
  <g>
    <polygon points="458.94 100.18 447.55 132.91 443.79 144.04 435.01 144.06 425.61 113.99 416.2 144.08 407.46 144.06 406.2 140 392.66 100.2 403.83 100.1 413.63 131.73 423.26 100.2 432.13 100.24 436.59 115.6 441.47 131.81 452.2 100.22 458.94 100.18"/>
    <path d="M376.34,143.02c-2.3.81-4.76,1.41-7.14,1.43l-17.84.12v-44.45l17.93.06,3.69.61c10.16,1.65,16.84,10.39,17.07,20.7.23,9.62-4.4,18.29-13.71,21.57v-.04ZM376.46,110.65c-1.88-2.83-5.36-4.62-8.77-4.64l-6.09-.04v32.8l7.35-.18c3.69-.08,6.57-2.73,8.35-5.91,3.42-6.05,3.24-15.87-.83-22.06l-.02.02Z"/>
    <polygon points="251.22 144.42 241.08 144.54 241.08 124.95 223.15 124.89 223.15 144.54 213.01 144.56 213.01 100.1 223.15 100.12 223.15 119.39 241.08 119.35 241.1 100.1 251.18 100.12 251.22 144.42"/>
    <path d="M538.88,144.08l-10.79.16-8.14-16.85-5.28-.06-.06,16.85-10.1.08v-44.16l19.14.1c2.76,0,5.38.92,7.78,2,4.01,2.22,6.3,6.01,6.47,10.65.21,5.77-2.8,10.72-8.29,12.71l1.77,3.63,7.47,14.91.04-.02ZM521.51,121.36c4.17-.08,6.22-4.01,6.05-7.8-.1-2.16-.23-4.09-1.73-5.7-1.11-1.2-3.15-2.16-5.15-2.12l-6.03.16v15.6l6.85-.14Z"/>
    <path d="M342.72,144.08l-10.79.16-8.14-16.85-5.28-.06-.06,16.85-10.1.08v-44.16l19.14.1c2.76,0,5.38.92,7.78,2,4.01,2.22,6.3,6.01,6.47,10.65.21,5.77-2.8,10.72-8.29,12.71l1.77,3.63,7.47,14.91.04-.02ZM325.35,121.36c4.17-.08,6.22-4.01,6.05-7.8-.1-2.16-.23-4.09-1.73-5.7-1.11-1.2-3.15-2.16-5.15-2.12l-6.03.16v15.6l6.85-.14Z"/>
    <path d="M483.22,133.1c-2.65-.33-5.36-.2-8.08-.22-3.11,0-6.05,0-9.18.16l-4.38,11.49-7.16-.04,7.68-19.47,10-24.93h8.77l4.22,10.57,13.61,33.77-11.04.12-4.44-11.45h-.02ZM480.94,127.23l-6.24-15.6-6.49,15.69,12.73-.1Z"/>
    <path d="M286.43,133.1c-2.65-.33-5.36-.2-8.08-.22-3.11,0-6.05,0-9.18.16l-4.38,11.49-7.16-.04,7.68-19.47,10-24.93h8.77l4.22,10.57,13.61,33.77-11.04.12-4.44-11.45h-.02ZM284.16,127.23l-6.24-15.6-6.49,15.69,12.73-.1Z"/>
    <polygon points="558.89 105.84 558.89 119.55 572.58 119.55 572.58 125.19 558.89 125.19 558.89 138.86 578.09 138.86 578.09 144.56 546.97 144.56 546.97 100.1 578.09 100.1 578.09 105.84 558.89 105.84"/>
  </g>
  <g>
    <polygon class="st0" points="158.33 17.83 150.95 30.6 19.36 30.6 11.98 17.83 158.33 17.83"/>
    <polygon class="st0" points="76.64 32.72 76.64 45.49 27.89 45.49 20.57 32.72 76.64 32.72"/>
    <polygon class="st0" points="149.72 32.72 142.34 45.49 93.65 45.49 93.65 32.72 149.72 32.72"/>
    <polygon class="st0" points="166.94 3 159.56 15.71 10.75 15.71 3.37 3 166.94 3"/>
    <polygon class="st0" points="76.64 47.61 76.64 129.9 63.87 107.84 63.87 47.61 76.64 47.61"/>
    <polygon class="st0" points="91.53 32.72 91.53 133.6 85.12 144.58 78.76 133.52 78.76 32.72 91.53 32.72"/>
    <polygon class="st0" points="106.36 47.61 106.36 107.84 93.65 129.9 93.65 47.61 106.36 47.61"/>
  </g>
  <g>
    <path class="st0" d="M233.04,74.59h-19.24V13.79h-18.94V4.85h57.22v8.94h-18.94v60.79h-.11Z"/>
    <polygon class="st0" points="291.32 13.71 291.32 35.25 313.31 35.25 313.31 44.1 291.32 44.1 291.32 65.56 322.19 65.56 322.19 74.5 272.14 74.5 272.14 4.68 322.19 4.68 322.19 13.71 291.32 13.71"/>
    <path class="st0" d="M351.45,74.5h-8.94V4.77h12.45l42.4,47.89V4.77h8.85v69.73h-12.45l-42.31-47.82v47.82h0Z"/>
    <path class="st0" d="M498.57,39.52c0,5.64-.99,10.69-2.91,15.21-1.92,4.52-4.59,8.32-8.01,11.46-3.45,3.12-7.48,5.58-12.15,7.17-4.65,1.68-9.78,2.52-15.21,2.52s-10.53-.84-15.21-2.52c-4.65-1.68-8.7-4.11-12.15-7.17-3.45-3.12-6.12-6.96-8.01-11.46-1.9-4.5-2.91-9.54-2.91-15.21s.99-10.84,2.91-15.36c1.92-4.52,4.59-8.32,7.95-11.46,3.36-3.12,7.48-5.49,12.15-7.17s9.78-2.52,15.27-2.52,10.62.84,15.27,2.52,8.7,4.05,12.15,7.17c3.45,3.12,6.03,6.96,7.95,11.46,1.98,4.5,2.97,9.63,2.97,15.36h-.09.02ZM479.01,39.52c0-2.13-.09-4.29-.3-6.57-.24-2.22-.54-4.35-1.08-6.48-.54-2.07-1.23-4.05-2.13-5.88-.93-1.83-2.07-3.45-3.36-4.8-1.38-1.38-3.06-2.43-5.04-3.27-1.92-.75-4.2-1.14-6.87-1.14s-4.95.39-6.96,1.14-3.66,1.92-5.04,3.21c-1.38,1.38-2.52,2.97-3.36,4.8s-1.53,3.81-2.07,5.88-.84,4.2-1.08,6.48c-.15,2.28-.3,4.44-.3,6.64s.09,4.29.3,6.57c.24,2.22.54,4.35,1.08,6.48.54,2.07,1.23,4.05,2.13,5.88.93,1.83,1.98,3.45,3.36,4.8s3.06,2.43,5.04,3.27c1.92.75,4.2,1.23,6.87,1.23s4.8-.39,6.72-1.23,3.51-1.92,4.89-3.36c1.38-1.38,2.52-2.97,3.45-4.89s1.68-3.81,2.22-5.88c.54-2.07.93-4.2,1.14-6.42.24-2.28.3-4.35.3-6.42l.09-.09v.04Z"/>
    <path class="st0" d="M523.33,74.5h-8.94V4.77h12.45l42.4,47.89V4.77h8.85v69.73h-12.45l-42.31-47.82v47.82h0Z"/>
  </g>
</svg>
